<?xml version="1.0" standalone="no"?><!DOCTYPE svg PUBLIC "-//W3C//DTD SVG 1.1//EN" "http://www.w3.org/Graphics/SVG/1.1/DTD/svg11.dtd"><svg t="1776051322563" class="icon" viewBox="0 0 1024 1024" version="1.1" xmlns="http://www.w3.org/2000/svg" p-id="2675" xmlns:xlink="http://www.w3.org/1999/xlink" width="200" height="200"><path d="M512 832c-156.448 0-296.021-98.73-418.41-291.605a52.939 52.939 0 0 1 0-56.79C215.978 290.731 355.551 192 512 192c156.448 0 296.021 98.73 418.41 291.605a52.939 52.939 0 0 1 0 56.79C808.022 733.269 668.449 832 512 832z m0-576c-129.515 0-249.461 83.85-360.117 256C262.539 684.15 382.485 768 512 768c129.515 0 249.461-83.85 360.117-256C761.461 339.85 641.515 256 512 256z m0 405.333c-83.21 0-150.667-66.858-150.667-149.333S428.79 362.667 512 362.667 662.667 429.525 662.667 512 595.21 661.333 512 661.333z m0-64c47.552 0 86.101-38.208 86.101-85.333S559.552 426.667 512 426.667 425.899 464.875 425.899 512s38.549 85.333 86.101 85.333z" p-id="2676"></path></svg>