<?xml version="1.0" standalone="no"?><!DOCTYPE svg PUBLIC "-//W3C//DTD SVG 1.1//EN" "http://www.w3.org/Graphics/SVG/1.1/DTD/svg11.dtd"><svg t="1776498254014" class="icon" viewBox="0 0 1024 1024" version="1.1" xmlns="http://www.w3.org/2000/svg" p-id="3908" xmlns:xlink="http://www.w3.org/1999/xlink" width="200" height="200"><path d="M10.604695 6.120669h1002.932577v1011.182756H10.604695z" fill="#FFFFFF" fill-opacity="0" p-id="3909"></path><path d="M941.281233 39.241927c-36.429366-24.107668-89.86803-48.349268-180.271787-21.161176-52.769007 15.937847-88.662647 71.117622-106.475535 164.066077-0.669657 3.61615-1.205383 6.696575-1.607178 7.634095-2.67863 8.437684-21.295107 28.259545-36.965092 41.652693-9.509136 8.169821-36.295434 14.33067-50.626103 16.875368-2.544698-7.098369-4.017945-11.518108-4.151877-11.65204a5.142969 5.142969 0 0 0-3.348287-3.080424 6.093883 6.093883 0 0 0-4.821534 0.401795c-6.964438 3.61615-27.188093 13.393149-36.697228 14.196738-5.491191 0.401794-21.56297 3.61615-42.054488 7.634095-29.197065 5.759054-65.492499 12.857423-76.742744 13.259217-18.750409 0.535726-116.78826 25.580915-137.681573 52.233282-13.794944 17.545025-74.331977 38.840132-110.49348 51.563624-11.65204 4.017945-21.696902 7.634095-27.85775 10.178793-1.339315 0.535726-2.276835 1.473246-2.812562 2.544698-1.205383 2.67863-2.142904 5.491191-2.812561 8.303753-9.509136 5.35726-76.608813 43.795598-96.698536 72.456936-21.696902 31.072106 1.875041 60.804897 22.902285 73.260526 0.803589 0.401794 54.242254 31.741763 99.511097 56.519089-15.000327 23.839805-21.161176 60.670965-29.197065 110.225617-2.544698 15.669984-5.223328 31.875695-8.437684 49.688583-6.964438 33.21501-21.027244 89.198373-29.197065 97.769989-1.473246 1.607178-1.875041 3.750082-1.071451 5.625122 2.142904 4.821534 18.616477 12.187766 48.884994 22.232628-3.214356 13.928875-10.714519 55.447637-3.214356 110.627411l13.661012 14.196738 45.000981 3.884013 46.876022 6.830506h307.774566v-6.830506c-0.93752-43.929529-16.607505-89.86803-21.830833-103.930837 10.580588-7.768026 15.402121-12.857423 15.803916-13.259217 1.071452-1.205383 1.473246-2.67863 1.071452-4.151876l-25.446984-90.269825c13.794944-21.027244 25.045189-56.653021 35.090051-88.126921 6.696575-21.161176 12.991355-41.250899 18.750409-52.367213 3.214356-6.026917 5.759054-12.58956 7.768026-19.286135 2.276835 0.401794 5.089397 0.803589 8.437684 0.803589 5.625123 0 12.58956-1.071452 20.223655-4.821534 10.312725-4.955465 19.955792-8.705547 26.92023-11.384176 3.61615-1.339315 6.29478-2.410767 8.437684-3.348288 7.901958-3.482219 24.911257-20.62545 20.625449-36.295434-3.080424-11.250245-2.410767-41.384831-2.276835-47.277816 3.348287-1.473246 6.160849-3.080424 7.634095-3.884013 1.205383-0.669657 2.008972-1.741109 2.276835-2.812561 0.669657-2.276835 6.29478-22.366559 4.553671-31.607832-1.339315-6.964438 16.473573-64.287116 23.705874-71.653348 7.901958-8.035889 10.178793-35.223982 10.714519-47.009953 6.964438-0.803589 14.33067-2.410767 17.678957-5.759054 1.741109-0.669657 8.169821-0.401794 13.527081 0.535726 10.714519 11.384177 19.821861 20.62545 23.571942 23.571942 8.839478 7.366232 22.366559 11.250245 31.607832 11.250245h2.544698c10.044862-0.93752 15.000327-5.625123 23.839806-14.196738 3.884013-3.750082 12.187766-2.410767 18.214682-1.473246 4.687602 0.669657 8.035889 1.205383 10.848451-0.401795 3.750082-2.142904 7.098369-8.169821 9.241273-13.393149 3.080424 0.133931 6.428712-0.401794 9.643067-1.741109 4.553671-1.875041 9.776999-5.625123 10.580588-9.375205 0.535726-2.544698 2.812561-8.571615 5.223328-12.857423 3.214356 1.875041 8.035889 4.419739 13.661012 7.098369 6.964438 3.214356 14.33067 3.214356 19.821861-0.133931 5.089397-3.080424 7.500163-8.169821 6.562643-13.794944-0.669657-5.892986 14.598533-43.12594 19.687929-55.447637 2.008972-4.821534 2.946493-7.232301 3.348288-8.437684 2.946493-1.875041 14.598533-5.223328 20.357586-6.026917 10.312725-1.339315 48.215337-39.777653 58.39413-90.671619 0-42.590214-30.53638-121.475862-72.189073-149.199681z m62.679937 148.128229c0 2.544698-0.401794 4.955465-1.339315-0.535726 0.93752-4.687602 1.473246-2.008972 1.339315 0.535726z m-246.835737-41.518762c10.580588-1.875041 19.687929-0.535726 27.054161 4.017944 12.723492 8.169821 14.464601 23.571942 14.598532 24.107669l-10.982382 0.93752c0-0.133931-1.473246-11.785971-10.312725-17.411094-4.553671-2.946493-10.714519-3.750082-18.080751-2.410767-30.402448 5.491191-30.804243 54.108322-30.804243 56.117295 0 12.991355 7.768026 35.357914 16.607505 36.697229 1.607178 0.267863 3.884013 0.401794 4.955465-0.535726 1.339315-1.071452 1.741109-3.750082 1.607178-4.821534l10.982382-0.669657c0 0.803589 0.535726 7.901958-5.089396 12.455628-2.008972 1.473246-5.35726 3.214356-10.446657 3.214356-1.205383 0-2.410767-0.133931-3.884013-0.267863-19.553998-2.946493-25.714846-36.697229-25.714846-46.072433 0-5.892986 1.071452-58.39413 39.50979-65.358567z m-235.719424 860.64376c0.133931 0.93752-3.61615 0.267863-3.884014 0 0-0.133931 6.026917-0.267863 9.107342 0h-5.223328z" fill="#EE0A24" opacity=".92" p-id="3910"></path></svg>