<?xml version="1.0" standalone="no"?><!DOCTYPE svg PUBLIC "-//W3C//DTD SVG 1.1//EN" "http://www.w3.org/Graphics/SVG/1.1/DTD/svg11.dtd"><svg t="1776480874495" class="icon" viewBox="150 35 765 765" version="1.1" xmlns="http://www.w3.org/2000/svg" p-id="1762" xmlns:xlink="http://www.w3.org/1999/xlink" width="200" height="200"><defs><mask id="slash-cut"><rect x="-100" y="-100" width="1200" height="1200" fill="white"/><line x1="260" y1="145" x2="830" y2="715" stroke="black" stroke-width="90" stroke-linecap="round"/></mask></defs><g mask="url(#slash-cut)"><path d="M353.801953 694.455029q-26.042064 0-44.271509-18.229444t-18.229444-44.271508q0-18.229445 10.416825-34.288717t27.778202-23.003823l135.41873-53.820265v-78.126191q-46.875714 54.688334-108.942632 83.768638T221.855497 555.564023v-69.445503q59.028677 0 107.206495-24.305926T416.302905 392.367092l46.875715-55.556403q10.416825-12.152963 24.305926-18.229444t29.514338-6.076482h34.722752q15.625238 0 29.514339 6.076482t24.305926 18.229444l46.875714 55.556403q39.063095 45.139577 87.240913 69.445502T846.865023 486.11852v69.445503q-72.049709 0-134.116627-29.080304T603.805763 442.715081v78.126191l135.418731 53.820265q17.361376 6.94455 27.778201 23.003823t10.416825 34.288717q0 26.042064-18.229444 44.271508t-44.271508 18.229444H464.914757v-17.361376q0-22.569788 14.75717-37.326957t37.326957-14.75717h104.168255q7.812619 0 12.586997-4.774378T638.528515 607.648151q0-7.812619-4.774379-12.586998T621.167139 590.286775H516.998884q-36.458889 0-61.632883 25.173995t-25.173995 61.632883v17.361376h-76.390053z m180.558307-416.673017q-28.64627 0-49.045886-20.399617T464.914757 208.336509q0-28.64627 20.399617-49.045887T534.36026 138.891006q28.64627 0 49.045887 20.399616T603.805763 208.336509q0 28.64627-20.399616 49.045886T534.36026 277.782012z" p-id="1763" fill="#d81e06"></path></g><line x1="260" y1="145" x2="830" y2="715" stroke="#d81e06" stroke-width="55" stroke-linecap="round"/></svg>