<?xml version="1.0" standalone="no"?><!DOCTYPE svg PUBLIC "-//W3C//DTD SVG 1.1//EN" "http://www.w3.org/Graphics/SVG/1.1/DTD/svg11.dtd"><svg t="1776157166431" class="icon" viewBox="0 0 1024 1024" version="1.1" xmlns="http://www.w3.org/2000/svg" p-id="17818" xmlns:xlink="http://www.w3.org/1999/xlink" width="200" height="200"><path d="M608 128a64 64 0 0 1 64 64v64h74.624a64 64 0 0 1 63.168 53.504l85.312 512A64 64 0 0 1 832 896H192a64 64 0 0 1-63.104-74.496l85.312-512A64 64 0 0 1 277.376 256H352V192a64 64 0 0 1 64-64h192z m125.12 192h-442.24a16 16 0 0 0-15.744 13.376l-80 480a16 16 0 0 0 15.744 18.624h602.24a16 16 0 0 0 15.744-18.624l-80-480A16 16 0 0 0 733.12 320zM624 416a16 16 0 0 1 16 16v32a16 16 0 0 1-16 16H544v240a16 16 0 0 1-16 16h-32a16 16 0 0 1-16-16V480H400A16 16 0 0 1 384 464v-32a16 16 0 0 1 16-16h224zM592 192h-160a16 16 0 0 0-16 16V256h192v-48A16 16 0 0 0 592 192z" p-id="17819" fill="#d81e06"></path></svg>