<?xml version="1.0" standalone="no"?><!DOCTYPE svg PUBLIC "-//W3C//DTD SVG 1.1//EN" "http://www.w3.org/Graphics/SVG/1.1/DTD/svg11.dtd"><svg t="1776753105476" class="icon" viewBox="0 0 1024 1024" version="1.1" xmlns="http://www.w3.org/2000/svg" p-id="5661" xmlns:xlink="http://www.w3.org/1999/xlink" width="200" height="200"><path d="M377.173333 1024H362.154667a83.968 83.968 0 0 1-68.266667-98.986667l72.362667-409.6a197.973333 197.973333 0 0 0 0-92.16 11.605333 11.605333 0 0 0-8.192-13.653333h-204.8a85.333333 85.333333 0 0 1 0-170.666667h268.970666A136.533333 136.533333 0 0 1 375.808 136.533333a136.533333 136.533333 0 1 1 273.066667 0 136.533333 136.533333 0 0 1-46.421334 102.4h268.288a85.333333 85.333333 0 1 1 0 170.666667H660.48a23.893333 23.893333 0 0 0-4.778667 8.874667 204.8 204.8 0 0 0 0 92.16l73.045334 409.6a81.237333 81.237333 0 0 1-14.336 63.488 82.602667 82.602667 0 0 1-54.613334 35.498666 81.237333 81.237333 0 0 1-63.488-14.336 82.602667 82.602667 0 0 1-35.498666-54.613333l-41.642667-251.904a173.397333 173.397333 0 0 0-6.826667-25.258667c0 8.192-5.461333 17.066667-7.509333 25.258667L460.458667 955.733333a85.333333 85.333333 0 0 1-83.285334 68.266667zM153.941333 307.2a17.066667 17.066667 0 0 0-17.066666 17.066667 17.066667 17.066667 0 0 0 17.066666 17.066666h209.578667a82.602667 82.602667 0 0 1 68.266667 52.565334 264.874667 264.874667 0 0 1 0 127.658666l-71.68 414.378667a15.018667 15.018667 0 0 0 0 12.288 17.749333 17.749333 0 0 0 10.922666 7.509333 17.749333 17.749333 0 0 0 12.288 0 19.114667 19.114667 0 0 0 7.509334-11.605333l44.373333-255.317333c6.826667-36.181333 25.941333-96.938667 73.045333-96.938667s68.266667 68.266667 75.093334 97.621333l45.056 255.317334a18.432 18.432 0 0 0 6.826666 11.605333 25.258667 25.258667 0 0 0 12.288 0 17.749333 17.749333 0 0 0 10.922667-7.509333 12.970667 12.970667 0 0 0 0-12.288l-66.901333-414.378667a260.778667 260.778667 0 0 1 0-128.341333A79.872 79.872 0 0 1 654.336 341.333333h215.722667a17.066667 17.066667 0 1 0 0-34.133333zM512.341333 68.266667a68.266667 68.266667 0 1 0 68.266667 68.266666 68.266667 68.266667 0 0 0-68.266667-68.266666z" p-id="5662" fill="#d81e06"></path></svg>