<?xml version="1.0" standalone="no"?><!DOCTYPE svg PUBLIC "-//W3C//DTD SVG 1.1//EN" "http://www.w3.org/Graphics/SVG/1.1/DTD/svg11.dtd"><svg t="1776262179754" class="icon" viewBox="0 0 1024 1024" version="1.1" xmlns="http://www.w3.org/2000/svg" p-id="4958" xmlns:xlink="http://www.w3.org/1999/xlink" width="200" height="200"><path d="M512 48c256.256 0 464 207.744 464 464S768.256 976 512 976 48 768.256 48 512 255.744 48 512 48z m0 32C273.408 80 80 273.408 80 512S273.408 944 512 944 944 750.592 944 512 750.592 80 512 80z m0 570.016c64.32 0 128.448 14.24 192.192 42.56a29.984 29.984 0 1 1-24.384 54.848c-56.256-25.024-112.096-37.44-167.808-37.44-55.68 0-111.552 12.416-167.808 37.44a29.984 29.984 0 1 1-24.384-54.848c63.744-28.32 127.904-42.56 192.192-42.56zM354.624 320l6.272 0.064c49.376 7.36 90.56 44.288 106.112 95.104 17.184 47.296 6.88 100.992-26.336 137.12a23.456 23.456 0 0 1-34.848-0.128 27.84 27.84 0 0 1 0.128-37.376c19.2-21.76 24.896-53.536 14.528-81.376-9.216-31.68-34.432-54.944-64.992-59.968-23.296-3.04-46.4 6.944-61.312 26.4a68.928 68.928 0 0 0-6.656 67.104c4.224 9.408 11.136 17.088 19.712 21.952 9.792 5.248 21.12 6.08 31.52 2.368 10.56-3.424 19.008-12.064 22.624-23.264a24.384 24.384 0 0 0-11.552-26.4 9.664 9.664 0 0 0-3.936 0 27.744 27.744 0 0 1-5.76 34.56 23.392 23.392 0 0 1-32.64-2.08c-16.16-14.56-19.936-39.616-8.896-58.912 14.976-22.784 41.92-32.608 66.752-24.32 34.72 14.24 53.376 54.752 42.816 93.024-8.448 27.68-28.8 49.28-54.656 58.112a84.544 84.544 0 0 1-69.184-5.536 98.976 98.976 0 0 1-41.344-45.184c-18.176-40.256-13.504-88.064 12.064-123.392 22.72-30.24 57.088-47.744 93.312-47.552l6.272-0.32z m323.264 0.32c49.312 7.36 90.464 44.128 106.112 94.848 16.864 47.04 6.56 100.352-26.336 136.32a23.456 23.456 0 0 1-34.848-0.128 27.84 27.84 0 0 1 0.128-37.376c19.2-21.76 24.896-53.536 14.528-81.376-9.216-31.68-34.432-54.944-64.992-59.968-23.296-2.976-46.4 6.976-61.312 26.4a69.76 69.76 0 0 0-6.88 68.96c4.352 9.376 11.328 17.024 19.936 21.952 9.792 5.248 21.12 6.08 31.52 2.368 10.56-3.392 19.008-12.064 22.624-23.264a24.416 24.416 0 0 0-11.552-27.456 12.16 12.16 0 0 0-4.448 0 27.904 27.904 0 0 1-3.68 31.68 23.424 23.424 0 0 1-34.24 0c-15.712-14.464-19.456-39.008-8.832-58.112 15.232-22.72 42.464-32.128 67.2-23.264 34.72 14.24 53.376 54.752 42.848 93.024-8.832 27.392-29.344 48.608-55.168 57.056a85.44 85.44 0 0 1-69.184-5.28 101.088 101.088 0 0 1-41.344-45.44c-18.176-40.256-13.504-88.064 12.064-123.392 22.72-30.24 57.088-47.744 93.312-47.552 4.16-0.256 8.352-0.256 12.544 0z" fill="#d81e06" p-id="4959"></path></svg>