<?xml version="1.0" standalone="no"?><!DOCTYPE svg PUBLIC "-//W3C//DTD SVG 1.1//EN" "http://www.w3.org/Graphics/SVG/1.1/DTD/svg11.dtd"><svg t="1776052316332" class="icon" viewBox="0 0 1024 1024" version="1.1" xmlns="http://www.w3.org/2000/svg" p-id="17697" width="200" height="200" xmlns:xlink="http://www.w3.org/1999/xlink"><path d="M723.252364 930.909091s3.584-147.874909 4.654545-163.793455c0.442182-6.702545 3.025455-10.705455 9.355636-19.944727l10.542546-16.151273c35.328-56.785455 50.641455-75.450182 57.250909-81.361454 35.537455 1.861818 64.279273-2.885818 85.271273-14.336l14.336-7.842909c90.786909-49.082182 109.032727-61.905455 115.688727-72.145455 16.663273-25.530182-22.388364-172.520727-34.978909-195.351273-8.820364-15.965091-28.090182-44.706909-46.685091-72.471272-14.103273-20.922182-33.28-49.617455-36.072727-55.738182-7.168-16.337455-29.323636-31.511273-59.857455-51.2-5.678545-3.653818-10.705455-6.865455-14.242909-9.378909-15.453091-10.938182-32.721455-23.272727-54.132364-20.247273-36.352 5.422545-74.938182 42.053818-72.308363 85.899636 1.047273 18.571636 11.589818 36.375273 29.696 50.176 20.712727 15.872 47.499636 23.924364 69.911273 19.61891 6.632727-1.303273 15.802182-3.234909 19.409454-0.186182 8.727273 14.010182 18.734545 29.905455 19.153455 51.665454 0.605091 34.304 1.582545 58.321455 3.258181 75.589818-15.36-3.909818-34.885818-6.144-52.759272 0.116364-18.455273 6.306909-27.578182 13.963636-33.582546 19.409455-4.677818-2.722909-10.868364-6.772364-15.825454-10.030546-22.411636-14.568727-45.265455-29.626182-66.466909-28.788363-18.967273 0.861091-31.441455 1.954909-41.332364 4.887272-9.797818-7.354182-26.437818-23.970909-34.234182-34.141091a8.610909 8.610909 0 0 1 0.861091-1.093818c27.298909-38.120727 52.549818-77.381818 52.549818-106.333091 0-37.841455-10.100364-161.373091-140.311272-161.373091-130.117818 0-140.264727 123.531636-140.264728 161.373091 0 28.951273 25.250909 68.189091 52.596364 106.333091 0.279273 0.349091 0.558545 0.698182 0.814545 1.093818-10.170182 12.567273-21.643636 23.994182-34.257454 34.164364-9.937455-2.955636-22.388364-4.049455-41.285818-4.887273-21.806545-1.163636-44.101818 14.149818-66.490182 28.765091-4.933818 3.258182-11.124364 7.284364-15.802182 10.030546-6.050909-5.469091-15.127273-13.102545-33.512727-19.409455-17.850182-6.167273-36.887273-4.119273-52.689455 0.023273 1.559273-17.082182 2.466909-41.239273 3.118546-75.869091 0.395636-21.597091 10.379636-37.469091 20.084363-53.876364 2.653091-0.698182 11.869091 1.210182 21.666909 3.165091 20.945455 3.956364 45.870545-7.703273 62.114909-20.130909 20.898909-16.058182 33.117091-36.026182 34.304-56.366545 2.56-42.775273-34.746182-74.193455-72.331636-79.825455-20.945455-3.095273-38.632727 9.285818-54.109091 20.247273-3.560727 2.536727-8.541091 5.748364-14.266182 9.402182-30.557091 19.688727-52.689455 34.862545-59.904 51.2-2.629818 6.050909-21.876364 34.676364-35.909818 55.552-18.664727 27.857455-37.934545 56.622545-46.824727 72.657454-12.567273 22.807273-51.595636 169.774545-34.978909 195.351273 6.656 10.193455 24.925091 23.04 115.549091 72.052364l14.615272 7.866181c20.805818 11.450182 49.454545 16.197818 85.108364 14.336 6.609455 5.911273 21.806545 24.506182 57.134546 81.082182l10.658909 16.477091c6.353455 9.239273 8.936727 13.242182 9.309091 19.968 1.093818 15.872 4.701091 163.700364 4.70109 163.700364" fill="#2c2c2c" p-id="17698"></path></svg>