<?xml version="1.0" standalone="no"?><!DOCTYPE svg PUBLIC "-//W3C//DTD SVG 1.1//EN" "http://www.w3.org/Graphics/SVG/1.1/DTD/svg11.dtd"><svg t="1776157039979" class="icon" viewBox="0 0 1024 1024" version="1.1" xmlns="http://www.w3.org/2000/svg" p-id="10190" xmlns:xlink="http://www.w3.org/1999/xlink" width="200" height="200"><path d="M228.352 235.008l60.288 60.330667C222.72 345.898667 160.256 418.944 100.352 512c123.52 191.914667 257.792 298.666667 411.648 298.666667 76.373333 0 147.925333-26.282667 215.722667-76.245334l60.416 60.458667C700.8 862.293333 608.768 896 512 896c-188.501333 0-359.168-128-512-384 72.106667-120.832 148.266667-213.162667 228.352-276.992zM512 128c188.501333 0 359.168 128 512 384-40.362667 67.584-81.92 126.250667-124.757333 176-37.376 43.392-99.285333-13.909333-60.202667-60.202667A1119.573333 1119.573333 0 0 0 923.648 512C800.128 320.085333 665.856 213.333333 512 213.333333c-23.68 0-44.8 2.090667-69.717333 7.509334-60.330667 13.226667-78.677333-69.333333-22.101334-82.389334A406.314667 406.314667 0 0 1 512 128zM392.362667 390.314667l60.330666 60.330666a85.333333 85.333333 0 1 0 120.661334 120.661334l60.330666 60.330666a170.666667 170.666667 0 1 1-241.365333-241.365333z" fill="#d81e06" p-id="10191"></path><path d="M12.501333 12.501333A42.666667 42.666667 0 0 1 68.821333 8.96l4.010667 3.541333 938.666667 938.666667a42.666667 42.666667 0 0 1-56.32 63.872l-4.010667-3.541333-938.666667-938.666667a42.666667 42.666667 0 0 1 0-60.330667z" fill="#d81e06" p-id="10192"></path></svg>