<?xml version="1.0" standalone="no"?><!DOCTYPE svg PUBLIC "-//W3C//DTD SVG 1.1//EN" "http://www.w3.org/Graphics/SVG/1.1/DTD/svg11.dtd"><svg t="1776051376150" class="icon" viewBox="0 0 1024 1024" version="1.1" xmlns="http://www.w3.org/2000/svg" p-id="3779" xmlns:xlink="http://www.w3.org/1999/xlink" width="200" height="200"><path d="M803.139368 548.567579c-38.265263-80.518737-175.777684-168.986947-175.777684-168.986947l-61.116631 418.573473s-76.395789-64.404211-76.39579-96.579368c-7.626105-48.316632 107.008-322.021053 107.008-322.021053l-76.395789 24.225684-91.75579-24.225684c-83.994947 8.003368-267.506526 233.418105-298.145684 313.909895-22.878316 72.380632 0 160.983579 30.639158 177.098105 53.490526 32.202105 168.151579 24.198737 168.151579 24.198737L316.631579 1017.263158h415.070316l-24.441263-280.602947s34.869895 93.696 42.496 142.012631c7.626105 48.289684 6.413474 138.590316 6.413473 138.590316h146.324211c-0.350316-7.383579-1.670737-42.711579-7.491369-146.593684-7.733895-136.892632-45.999158-233.498947-91.890526-322.101895z m-298.037894 297.903158c-7.626105 7.976421-76.395789 16.087579-145.246316 16.087579-68.769684 0-145.273263 0-160.525474-16.087579-15.252211-16.114526-45.891368-40.313263-30.639158-104.582737 0-88.629895 175.885474-273.704421 191.137685-289.818947 0 0 91.755789 233.391158 114.634105 273.704421 22.905263 40.313263 45.891368 64.404211 45.891368 64.40421s0 40.070737-15.25221 56.293053z m397.285052 170.684631c0.134737 2.425263 0.134737 1.940211 0 0zM526.551579 348.698947c91.270737 0 165.241263-74.913684 165.241263-167.289263 0-92.375579-73.970526-167.289263-165.241263-167.289263-91.270737 0-165.349053 74.913684-165.349053 167.289263 0 92.348632 74.078316 167.289263 165.349053 167.289263z" fill="#d81e06" p-id="3780"></path></svg>