<?xml version="1.0" standalone="no"?><!DOCTYPE svg PUBLIC "-//W3C//DTD SVG 1.1//EN" "http://www.w3.org/Graphics/SVG/1.1/DTD/svg11.dtd"><svg t="1776159090167" class="icon" viewBox="0 0 1024 1024" version="1.1" xmlns="http://www.w3.org/2000/svg" p-id="7303" xmlns:xlink="http://www.w3.org/1999/xlink" width="200" height="200"><path d="M903.168 325.632L325.632 903.168c-40.448 5.632-72.704 15.36-115.712 0L120.832 814.08c-1.024-38.912 1.536-73.216 0-115.712L698.368 120.832c34.816-3.072 62.976-3.072 115.712 0L903.168 209.92v115.712z" fill="#FFF2D4" p-id="7304"></path><path d="M267.776 918.528c-41.472 0-83.456-15.872-115.2-47.616-63.488-63.488-63.488-166.912 0-230.4l487.936-487.936c30.72-30.72 71.68-47.616 115.2-47.616s84.48 16.896 115.2 47.616c30.72 30.72 47.616 71.68 47.616 115.2s-16.896 84.48-47.616 115.2l-487.936 487.936c-31.744 31.744-73.216 47.616-115.2 47.616z m488.448-777.728c-32.768 0-65.024 12.288-90.112 37.376l-487.936 487.936c-49.664 49.664-49.664 130.56 0 180.224s130.56 49.664 180.224 0L846.336 358.4l12.288 12.288-12.288-12.288c49.664-49.664 49.664-130.56 0-180.224-25.088-25.088-57.856-37.376-90.112-37.376z" fill="#232323" p-id="7305"></path><path d="M698.368 903.168L120.832 325.632c-9.216-46.592-9.216-75.264 0-115.712L209.92 120.832c40.448-4.096 75.264-4.096 115.712 0l577.536 577.536V814.08l-89.6 89.6c-26.624 5.12-73.728 9.216-115.2-0.512z" fill="#FFAF78" p-id="7306"></path><path d="M756.224 919.04c-43.52 0-84.48-16.896-115.2-47.616L152.576 382.976c-63.488-63.488-63.488-166.912 0-230.4s166.912-63.488 230.4 0l487.936 487.936c63.488 63.488 63.488 166.912 0 230.4-30.72 31.232-71.168 48.128-114.688 48.128z m-488.448-778.24c-32.768 0-65.024 12.288-90.112 37.376-49.664 49.664-49.664 130.56 0 180.224l487.936 488.448c24.064 24.064 55.808 37.376 90.112 37.376s66.048-13.312 90.112-37.376c49.664-49.664 49.664-130.56 0-180.224L357.888 177.664c-24.576-24.576-57.344-36.864-90.112-36.864z" fill="#232323" p-id="7307"></path><path d="M514.048 643.072l-133.12-133.12c-5.632-5.632-5.632-14.336 0-19.968l109.056-109.056c5.632-5.632 14.336-5.632 19.968 0l133.12 133.12c5.632 5.632 5.632 14.336 0 19.968l-109.056 109.056c-5.632 5.632-14.848 5.632-19.968 0z" fill="#FFDEC7" p-id="7308"></path><path d="M680.96 599.552c0 6.656 5.632 12.288 12.288 12.288 6.656 0 12.288-5.632 12.288-12.288 0-6.656-5.632-12.288-12.288-12.288-6.656 0-12.288 5.632-12.288 12.288zM728.576 646.656c0 6.656 5.632 12.288 12.288 12.288 6.656 0 12.288-5.632 12.288-12.288 0-6.656-5.632-12.288-12.288-12.288-7.168 0-12.288 5.632-12.288 12.288zM774.656 693.248c0 6.656 5.632 12.288 12.288 12.288 6.656 0 12.288-5.632 12.288-12.288 0-6.656-5.632-12.288-12.288-12.288-6.656 0-12.288 5.632-12.288 12.288zM633.856 646.656c0 6.656 5.632 12.288 12.288 12.288 6.656 0 12.288-5.632 12.288-12.288 0-6.656-5.632-12.288-12.288-12.288-6.656 0-12.288 5.632-12.288 12.288zM681.472 693.76c0 6.656 5.632 12.288 12.288 12.288 6.656 0 12.288-5.632 12.288-12.288 0-6.656-5.632-12.288-12.288-12.288-6.656 0-12.288 5.632-12.288 12.288zM727.552 740.352c0 6.656 5.632 12.288 12.288 12.288 6.656 0 12.288-5.632 12.288-12.288 0-6.656-5.632-12.288-12.288-12.288s-12.288 5.632-12.288 12.288zM587.264 693.248c0 6.656 5.632 12.288 12.288 12.288s12.288-5.632 12.288-12.288c0-6.656-5.632-12.288-12.288-12.288s-12.288 5.632-12.288 12.288zM634.368 740.864c0 6.656 5.632 12.288 12.288 12.288 6.656 0 12.288-5.632 12.288-12.288 0-6.656-5.632-12.288-12.288-12.288s-12.288 5.632-12.288 12.288zM680.96 786.944c0 6.656 5.632 12.288 12.288 12.288 6.656 0 12.288-5.632 12.288-12.288 0-6.656-5.632-12.288-12.288-12.288-6.656 0-12.288 5.632-12.288 12.288zM320 238.592c0 6.656 5.632 12.288 12.288 12.288 6.656 0 12.288-5.632 12.288-12.288s-5.632-12.288-12.288-12.288c-6.656 0-12.288 5.12-12.288 12.288zM367.104 285.696c0 6.656 5.632 12.288 12.288 12.288 6.656 0 12.288-5.632 12.288-12.288 0-6.656-5.632-12.288-12.288-12.288-6.656 0-12.288 5.632-12.288 12.288zM413.696 332.288c0 6.656 5.632 12.288 12.288 12.288 6.656 0 12.288-5.632 12.288-12.288s-5.632-12.288-12.288-12.288c-6.656 0-12.288 5.12-12.288 12.288zM272.896 285.696c0 6.656 5.632 12.288 12.288 12.288s12.288-5.632 12.288-12.288-5.632-12.288-12.288-12.288c-6.656 0-12.288 5.12-12.288 12.288zM320 332.8c0 6.656 5.632 12.288 12.288 12.288 6.656 0 12.288-5.632 12.288-12.288s-5.632-12.288-12.288-12.288c-6.656 0-12.288 5.632-12.288 12.288zM366.592 378.88c0 6.656 5.632 12.288 12.288 12.288 6.656 0 12.288-5.632 12.288-12.288s-5.632-12.288-12.288-12.288c-6.656 0-12.288 5.632-12.288 12.288zM226.304 332.288c0 6.656 5.632 12.288 12.288 12.288s12.288-5.632 12.288-12.288c0-6.656-5.632-12.288-12.288-12.288s-12.288 5.632-12.288 12.288zM273.408 379.392c0 6.656 5.632 12.288 12.288 12.288 6.656 0 12.288-5.632 12.288-12.288s-5.632-12.288-12.288-12.288c-6.656 0-12.288 5.632-12.288 12.288zM319.488 425.984c0 6.656 5.632 12.288 12.288 12.288 6.656 0 12.288-5.632 12.288-12.288s-5.632-12.288-12.288-12.288c-6.656 0-12.288 5.632-12.288 12.288z" fill="#FFFFFF" p-id="7309"></path></svg>